<?xml version="1.0"?>
<svg xmlns="http://www.w3.org/2000/svg" xmlns:xlink="http://www.w3.org/1999/xlink" xmlns:svgjs="http://svgjs.com/svgjs" version="1.1" width="512" height="512" x="0" y="0" viewBox="0 0 128 128" style="enable-background:new 0 0 512 512" xml:space="preserve" class=""><circle r="64" cx="64" cy="64" fill="#539316" shape="circle"/><g transform="matrix(0.7,0,0,0.7,19.200001001358032,19.200001144409185)"><g xmlns="http://www.w3.org/2000/svg"><path d="M116.5,43.364H71.307V7a1.75,1.75,0,0,0-1.75-1.75H58.443A1.75,1.75,0,0,0,56.693,7V43.364H11.5a6.257,6.257,0,0,0-6.25,6.25v8.492A1.749,1.749,0,0,0,7,59.856h3.45l4.833,49.577A6.727,6.727,0,0,0,22,115.527h2.47V121a1.749,1.749,0,0,0,1.75,1.75h14.46a1.75,1.75,0,0,0,1.677-1.252l1.772-5.971H83.869l1.772,5.971a1.75,1.75,0,0,0,1.677,1.252h14.46a1.749,1.749,0,0,0,1.75-1.75v-5.473H106a6.727,6.727,0,0,0,6.719-6.094l4.833-49.577H121a1.749,1.749,0,0,0,1.75-1.75V49.614A6.257,6.257,0,0,0,116.5,43.364ZM60.193,8.75h7.614V53.2a3.807,3.807,0,0,1-7.614,0ZM39.375,119.25h-11.4v-3.723H40.479Zm60.653,0h-11.4l-1.105-3.723h12.508Zm9.2-10.157A3.237,3.237,0,0,1,106,112.027H22a3.237,3.237,0,0,1-3.234-2.934l-4.8-49.237H51.73l.216,2.219a6.229,6.229,0,0,0,6.221,5.644H69.833a6.229,6.229,0,0,0,6.221-5.644l.215-2.219h37.763ZM119.25,56.356H74.683a1.752,1.752,0,0,0-1.743,1.58l-.371,3.8a2.739,2.739,0,0,1-2.736,2.484H58.167a2.739,2.739,0,0,1-2.736-2.484l-.371-3.8a1.752,1.752,0,0,0-1.743-1.58H8.75V49.614a2.753,2.753,0,0,1,2.75-2.75H56.693V53.2a7.307,7.307,0,0,0,14.614,0V46.864H116.5a2.753,2.753,0,0,1,2.75,2.75Z" fill="#ffffff" data-original="#000000" style="" class=""/><path d="M64,72.689a1.749,1.749,0,0,0-1.75,1.75V97.445a1.75,1.75,0,0,0,3.5,0V74.439A1.749,1.749,0,0,0,64,72.689Z" fill="#ffffff" data-original="#000000" style="" class=""/><path d="M49.262,72.689a1.749,1.749,0,0,0-1.75,1.75V97.445a1.75,1.75,0,0,0,3.5,0V74.439A1.75,1.75,0,0,0,49.262,72.689Z" fill="#ffffff" data-original="#000000" style="" class=""/><path d="M34.523,72.689a1.75,1.75,0,0,0-1.75,1.75V97.445a1.75,1.75,0,0,0,3.5,0V74.439A1.749,1.749,0,0,0,34.523,72.689Z" fill="#ffffff" data-original="#000000" style="" class=""/><path d="M78.738,99.2a1.749,1.749,0,0,0,1.75-1.75V74.439a1.75,1.75,0,0,0-3.5,0V97.445A1.749,1.749,0,0,0,78.738,99.2Z" fill="#ffffff" data-original="#000000" style="" class=""/><path d="M93.477,99.2a1.75,1.75,0,0,0,1.75-1.75V74.439a1.75,1.75,0,0,0-3.5,0V97.445A1.749,1.749,0,0,0,93.477,99.2Z" fill="#ffffff" data-original="#000000" style="" class=""/></g></g></svg>
